<svg width="1512" height="982" viewBox="0 0 1512 982" fill="none" xmlns="http://www.w3.org/2000/svg">
<g clip-path="url(#clip0_1870_69)">
<path d="M131.876 -0.5H-118.06V618.245H131.876V-0.5Z" fill="#D2D1CD"/>
<path d="M381.812 -0.5H131.875V618.245H381.812V-0.5Z" fill="#DFE121"/>
<path d="M631.748 -0.5H381.812V618.245H631.748V-0.5Z" fill="#59C6CE"/>
<path d="M881.21 -0.5H631.273V618.245H881.21V-0.5Z" fill="#58B947"/>
<path d="M1131.14 -0.5H881.201V618.245H1131.14V-0.5Z" fill="#B24C9C"/>
<path d="M1381.07 -0.5H1131.14V618.245H1381.07V-0.5Z" fill="#E22026"/>
<path d="M1631 -0.5H1381.06V618.245H1631V-0.5Z" fill="#404DA1"/>
<path d="M131.876 618.244H-118.06V723.185H131.876V618.244Z" fill="#404DA1"/>
<path d="M631.748 618.244H381.812V723.185H631.748V618.244Z" fill="#B24C9C"/>
<path d="M881.438 618.244H631.502V723.185H881.438V618.244Z" fill="#58B947"/>
<path d="M1131.14 618.244H881.201V723.185H1131.14V618.244Z" fill="#59C6CE"/>
<path d="M1631 618.244H1381.06V723.185H1631V618.244Z" fill="#D2D3CE"/>
<path d="M381.812 618.244H131.876V723.258H381.812V618.244Z" fill="#272727"/>
<path d="M1381.07 618.244H1131.14V723.258H1381.07V618.244Z" fill="#272727"/>
<path d="M707.379 670.706H799.93V723.25H1631V878.494H-118.06V723.204H707.552L707.379 670.706Z" fill="#272727"/>
<path d="M8.44751 723.206H5.24951V775.749H8.44751V723.206Z" fill="#E6E6E5"/>
<path d="M131.758 723.206H128.56V878.158H131.758V723.206Z" fill="#E6E6E5"/>
<path d="M381.803 723.305H378.604V878.258H381.803V723.305Z" fill="#E6E6E5"/>
<path d="M508.083 723.305H504.885V878.258H508.083V723.305Z" fill="#E6E6E5"/>
<path d="M632.987 723.305H629.789V878.258H632.987V723.305Z" fill="#E6E6E5"/>
<path d="M880.982 723.305H877.784V878.258H880.982V723.305Z" fill="#E6E6E5"/>
<path d="M1008.23 723.305H1005.03V878.258H1008.23V723.305Z" fill="#E6E6E5"/>
<path d="M1033.46 774.601H1030.26V878.249H1033.46V774.601Z" fill="#E6E6E5"/>
<path d="M1058.68 774.601H1055.48V878.249H1058.68V774.601Z" fill="#E6E6E5"/>
<path d="M1083.9 774.601H1080.7V878.249H1083.9V774.601Z" fill="#E6E6E5"/>
<path d="M1109.12 774.601H1105.93V878.249H1109.12V774.601Z" fill="#E6E6E5"/>
<path d="M906.776 774.601H903.578V878.249H906.776V774.601Z" fill="#E6E6E5"/>
<path d="M931.995 774.601H928.797V878.249H931.995V774.601Z" fill="#E6E6E5"/>
<path d="M957.215 774.601H954.017V878.249H957.215V774.601Z" fill="#E6E6E5"/>
<path d="M982.444 774.601H979.246V878.249H982.444V774.601Z" fill="#E6E6E5"/>
<path d="M780.423 826.005H777.225V878.258H780.423V826.005Z" fill="#E6E6E5"/>
<path d="M805.597 774.601H802.399V878.249H805.597V774.601Z" fill="#E6E6E5"/>
<path d="M830.771 774.601H827.573V878.249H830.771V774.601Z" fill="#E6E6E5"/>
<path d="M855.954 774.601H852.756V878.249H855.954V774.601Z" fill="#E6E6E5"/>
<path d="M657.441 774.484H654.243V878.26H657.441V774.484Z" fill="#E6E6E5"/>
<path d="M681.895 774.601H678.697V878.249H681.895V774.601Z" fill="#E6E6E5"/>
<path d="M706.341 774.601H703.143V878.249H706.341V774.601Z" fill="#E6E6E5"/>
<path d="M730.795 826.005H727.597V878.258H730.795V826.005Z" fill="#E6E6E5"/>
<path d="M533.056 774.484H529.858V878.26H533.056V774.484Z" fill="#E6E6E5"/>
<path d="M558.039 774.601H554.841V878.249H558.039V774.601Z" fill="#E6E6E5"/>
<path d="M583.022 774.601H579.824V878.249H583.022V774.601Z" fill="#E6E6E5"/>
<path d="M608.005 774.629H604.807V878.259H608.005V774.629Z" fill="#E6E6E5"/>
<path d="M407.058 774.484H403.86V878.26H407.058V774.484Z" fill="#E6E6E5"/>
<path d="M432.315 774.601H429.117V878.249H432.315V774.601Z" fill="#E6E6E5"/>
<path d="M457.571 774.601H454.373V878.249H457.571V774.601Z" fill="#E6E6E5"/>
<path d="M482.827 774.629H479.629V878.259H482.827V774.629Z" fill="#E6E6E5"/>
<path d="M1159.34 774.601H1156.14V878.249H1159.34V774.601Z" fill="#E6E6E5"/>
<path d="M1184.33 774.601H1181.13V878.249H1184.33V774.601Z" fill="#E6E6E5"/>
<path d="M1209.32 774.601H1206.12V878.249H1209.32V774.601Z" fill="#E6E6E5"/>
<path d="M1234.31 774.601H1231.11V878.249H1234.31V774.601Z" fill="#E6E6E5"/>
<path d="M1259.3 774.601H1256.1V878.249H1259.3V774.601Z" fill="#E6E6E5"/>
<path d="M1284.29 774.601H1281.1V878.249H1284.29V774.601Z" fill="#E6E6E5"/>
<path d="M1309.29 774.601H1306.09V878.249H1309.29V774.601Z" fill="#E6E6E5"/>
<path d="M1334.28 774.601H1331.08V878.249H1334.28V774.601Z" fill="#E6E6E5"/>
<path d="M1359.27 774.601H1356.07V878.249H1359.27V774.601Z" fill="#E6E6E5"/>
<path d="M156.758 774.601H153.56V878.249H156.758V774.601Z" fill="#E6E6E5"/>
<path d="M181.768 774.601H178.57V878.249H181.768V774.601Z" fill="#E6E6E5"/>
<path d="M206.769 774.601H203.571V878.249H206.769V774.601Z" fill="#E6E6E5"/>
<path d="M231.78 774.601H228.582V878.249H231.78V774.601Z" fill="#E6E6E5"/>
<path d="M256.78 774.601H253.582V878.249H256.78V774.601Z" fill="#E6E6E5"/>
<path d="M281.79 774.601H278.592V878.249H281.79V774.601Z" fill="#E6E6E5"/>
<path d="M306.791 774.601H303.593V878.249H306.791V774.601Z" fill="#E6E6E5"/>
<path d="M331.792 774.601H328.594V878.249H331.792V774.601Z" fill="#E6E6E5"/>
<path d="M356.802 774.601H353.604V878.249H356.802V774.601Z" fill="#E6E6E5"/>
<path d="M1134.34 723.305H1131.15V878.258H1134.34V723.305Z" fill="#E6E6E5"/>
<path d="M1384.26 723.305H1381.06V878.258H1384.26V723.305Z" fill="#E6E6E5"/>
<path d="M1507.64 723.305H1504.44V775.776H1507.64V723.305Z" fill="#E6E6E5"/>
<path d="M755.249 670.707H752.051V878.249H755.249V670.707Z" fill="#E6E6E5"/>
<path d="M1008.24 746.592H504.885V749.79H1008.24V746.592Z" fill="#E6E6E5"/>
<path d="M6.81683 878.157H-118.06V983.499H6.81683V878.157Z" fill="#363536"/>
<path d="M131.703 878.157H6.82568V983.499H131.703V878.157Z" fill="#4B4A4B"/>
<path d="M256.58 878.157H131.703V983.499H256.58V878.157Z" fill="#606060"/>
<path d="M381.456 878.157H256.58V983.499H381.456V878.157Z" fill="#7C7C7C"/>
<path d="M506.342 878.157H381.465V983.499H506.342V878.157Z" fill="#9B9B9B"/>
<path d="M631.219 878.157H506.342V983.499H631.219V878.157Z" fill="#B5B5B6"/>
<path d="M756.097 878.157H631.22V983.499H756.097V878.157Z" fill="#DCDCDC"/>
<path d="M880.982 878.157H756.105V983.499H880.982V878.157Z" fill="#FDFEFF"/>
<path d="M1631 878.157H880.982V983.499H1631V878.157Z" fill="url(#paint0_linear_1870_69)"/>
<rect width="1750.24" height="116.622" transform="translate(-119.244 410.411)" fill="#272727"/>
<rect width="749.844" height="105.689" transform="translate(881.156 877.812)" fill="url(#paint1_linear_1870_69)"/>
</g>
<defs>
<linearGradient id="paint0_linear_1870_69" x1="880.982" y1="930.828" x2="1631" y2="930.828" gradientUnits="userSpaceOnUse">
<stop stop-color="#2C2A2B"/>
<stop offset="1" stop-color="#231F20"/>
</linearGradient>
<linearGradient id="paint1_linear_1870_69" x1="0" y1="52.8444" x2="749.844" y2="52.8444" gradientUnits="userSpaceOnUse">
<stop stop-color="#272727"/>
<stop offset="1" stop-color="#FDFEFF"/>
</linearGradient>
<clipPath id="clip0_1870_69">
<rect width="1749.33" height="984" fill="white" transform="translate(-118.333 -0.5)"/>
</clipPath>
</defs>
</svg>
