<svg width="24" height="14" viewBox="0 0 24 14" fill="none" xmlns="http://www.w3.org/2000/svg">
    <path
        d="M9.5351 6.1977L7.17849 4.81565V5.48488H7.97197V7.81052H6.35858V4.72078H7.01716L5.62329 3.90283V4.72078H4.79808V7.03616H4.0099V9.33616H3.2085V10.8772H4.2982L4.78486 10.59V9.33616H5.59684V8.57463H8.22059L9.5351 7.80283V6.1977Z"
        fill="#131313" />
    <path d="M8.75941 3.15631H7.95801V2.40503H5.62256V3.00247L8.75941 4.84349V3.15631Z"
        fill="#131313" />
    <path
        d="M9.54579 10.1002V10.8771H11.146V10.113H10.3472V8.22583L8.76025 9.1566V10.1002H9.54579Z"
        fill="#131313" />
    <path
        d="M12.7192 2.40503V5.93323L14.3141 4.99477V3.17682H16.6945V3.5999L18.2815 2.66657V2.40503H12.7192Z"
        fill="#131313" />
    <path d="M14.3141 10.11V9.00487L12.7192 8.06641V10.8767H17.5039L16.1999 10.11H14.3141Z"
        fill="#131313" />
    <path d="M12.7192 7.16913L14.3141 8.10503V5.89478L12.7192 6.83067V7.16913Z" fill="#131313" />
    <path
        d="M19.0725 10.1023V8.56381H19.8633V4.72022H19.0725V3.18433H18.9323L17.4908 4.03048V4.72022H18.2896V8.56381H17.4855V9.33048H16.7026V9.50484L18.2816 10.433V10.1023H19.0725Z"
        fill="#131313" />
    <path
        d="M0 0V14H23.3333V0H0ZM22.5399 12.9333L18.2816 10.4333V10.8744H17.504L21.5163 13.2282H1.81705L8.75727 9.15385V8.5718H8.21771L4.78198 10.5872V10.8718H4.29532L0.790826 12.9282V1.06667L5.62042 3.9V3L1.81705 0.769231H21.5136L18.2816 2.66667V3.18462H18.9322L22.5399 1.06667V12.9333Z"
        fill="#131313" />
    <path
        d="M12.434 7.00016L12.7197 6.83093V5.93349L11.667 6.55144L8.76025 4.84375V5.49503H9.53521V6.1976L10.9 7.00016L9.53521 7.80272V7.81042H10.3472V8.2258L11.667 7.44888L12.7197 8.06683V7.16939L12.434 7.00016Z"
        fill="#131313" />
    <path d="M7.01709 4.7207L7.17843 4.81558V4.7207H7.01709Z" fill="#131313" />
    <path d="M16.6949 3.95162V3.60034L14.3145 4.99521V5.89521L17.491 4.03111V3.95162H16.6949Z"
        fill="#131313" />
    <path d="M14.3145 9.00522L16.2003 10.1104H16.7028V9.50522L14.3145 8.10522V9.00522Z"
        fill="#131313" />

</svg>