<svg width="201" height="200" viewBox="0 0 201 200" fill="none" xmlns="http://www.w3.org/2000/svg">
    <title>Strategy</title>
    <path
        d="M115.777 15.2772C115.777 23.7146 108.937 30.5544 100.5 30.5544C92.0624 30.5544 85.2225 23.7146 85.2225 15.2772C85.2225 6.83982 92.0624 0 100.5 0C108.937 0 115.777 6.83982 115.777 15.2772Z" />
    <path
        d="M115.777 184.706C115.777 193.143 108.937 199.983 100.5 199.983C92.0624 199.983 85.2225 193.143 85.2225 184.706C85.2225 176.268 92.0624 169.428 100.5 169.428C108.937 169.428 115.777 176.268 115.777 184.706Z" />
    <path
        d="M177.846 37.9136C177.846 46.351 171.007 53.1908 162.569 53.1908C154.132 53.1908 147.292 46.351 147.292 37.9136C147.292 29.4763 154.132 22.6364 162.569 22.6364C171.007 22.6364 177.846 29.4763 177.846 37.9136Z" />
    <path
        d="M53.708 37.9136C53.708 46.351 46.8682 53.1908 38.4308 53.1908C29.9935 53.1908 23.1536 46.351 23.1536 37.9136C23.1536 29.4763 29.9935 22.6364 38.4308 22.6364C46.8682 22.6364 53.708 29.4763 53.708 37.9136Z" />
    <path
        d="M31.0544 99.9914C31.0544 108.429 24.2146 115.269 15.7772 115.269C7.33982 115.269 0.5 108.429 0.5 99.9914C0.5 91.5541 7.33982 84.7142 15.7772 84.7142C24.2146 84.7142 31.0544 91.5541 31.0544 99.9914Z" />
    <path
        d="M53.708 162.069C53.708 170.507 46.8682 177.346 38.4308 177.346C29.9935 177.346 23.1536 170.507 23.1536 162.069C23.1536 153.632 29.9935 146.792 38.4308 146.792C46.8682 146.792 53.708 153.632 53.708 162.069Z" />
    <path
        d="M177.846 162.069C177.846 170.507 171.007 177.346 162.569 177.346C154.132 177.346 147.292 170.507 147.292 162.069C147.292 153.632 154.132 146.792 162.569 146.792C171.007 146.792 177.846 153.632 177.846 162.069Z" />
    <path
        d="M200.5 99.9914C200.5 108.429 193.66 115.269 185.223 115.269C176.785 115.269 169.946 108.429 169.946 99.9914C169.946 91.5541 176.785 84.7142 185.223 84.7142C193.66 84.7142 200.5 91.5541 200.5 99.9914Z" />
</svg>