<svg width="233" height="200" viewBox="0 0 233 200" fill="none" xmlns="http://www.w3.org/2000/svg">
<path d="M187.294 200C169.577 200 153.36 189.537 145.992 173.345C140.73 161.783 129.203 154.364 116.502 154.364C103.802 154.364 92.2698 161.783 87.0129 173.345C79.6394 189.537 63.4275 200 45.7108 200C20.7208 200 0.385742 179.67 0.385742 154.675C0.385742 130.508 20.0186 110.188 44.1458 109.375C54.9353 109.014 64.832 103.306 70.5402 94.1513C76.2535 84.992 77.041 73.5955 72.6269 63.744C70.0286 57.9504 68.7094 51.7506 68.7094 45.325C68.7094 20.3301 89.0444 0 114.034 0C139.029 0 159.359 20.3301 159.359 45.325C159.359 51.7456 158.045 57.9454 155.452 63.744C150.892 73.9266 151.896 85.7293 158.095 94.999C164.12 104.003 174.227 109.38 185.022 109.38C185.338 109.38 187.294 109.35 187.294 109.35C212.284 109.35 232.614 129.68 232.614 154.675C232.614 179.67 212.284 200 187.294 200Z" fill="#131313"/>
</svg>
