<svg width="200" height="200" viewBox="0 0 200 200" fill="none" xmlns="http://www.w3.org/2000/svg">
<path d="M32.2079 99.5474C2.86965 139.423 -8.53237 177.096 6.85474 192.482C22.2032 207.835 59.7591 196.512 99.5457 167.305C87.7296 158.555 75.7313 148.256 64.0727 136.596C51.8898 124.415 41.1989 111.87 32.2079 99.5474Z" fill="#131313"/>
<path d="M167.269 99.5457C196.476 59.7592 207.799 22.2097 192.445 6.85474C177.06 -8.53237 139.387 2.86964 99.5114 32.2079C111.834 41.1989 124.379 51.8898 136.56 64.0727C148.22 75.7313 158.519 87.7296 167.269 99.5457Z" fill="#131313"/>
<path d="M99.5242 32.212C59.9868 3.36248 22.7664 -7.74492 7.50257 7.51888C-7.76768 22.7891 3.34294 60.0064 32.1893 99.547C41.041 87.5199 51.5062 75.2863 63.3849 63.4076C75.2635 51.529 87.4971 41.0638 99.5242 32.212Z" fill="#131313"/>
<path d="M167.301 99.5492C158.41 111.654 147.887 123.965 135.924 135.927C123.962 147.89 111.65 158.415 99.5457 167.305C139.667 197.01 177.676 208.619 193.146 193.149C208.616 177.679 197.005 139.671 167.301 99.5492Z" fill="#131313"/>
</svg>
