<svg width="440" height="151" viewBox="0 0 440 151" fill="#0000FF"
    xmlns="http://www.w3.org/2000/svg">
    <path
        d="M177.37 92.9803C237.55 91.5903 301.05 92.6403 360.7 99.7503C377.73 101.78 397.7 104.46 414.02 109.42C461.3 123.8 410.35 135.1 392.06 138.52C317.27 152.5 227.78 151.98 151.82 148.7C113.83 147.06 44.1801 145.17 10.2601 130.47C-19.9399 117.38 25.0501 107.64 36.1101 105.38C80.2801 96.3503 132.14 94.0303 177.37 92.9803ZM331.08 102.13C317.25 102.46 298.78 114.77 310.49 129.15C320.28 141.18 346.56 140.95 354.91 127.51C364.43 112.2 344.32 101.81 331.08 102.13ZM99.9201 103.49H88.3901L108.73 137.29L116.45 136.47L135.26 103.49L124.06 104.19L111.83 124.17L99.9201 103.48V103.49ZM166 103.49H156.78V137.23H166V103.49ZM195.2 137.22H214.79C215.78 137.22 220.53 135.58 221.84 135.05C238.96 128.13 236.98 111.6 220.55 105.4C219.61 105.05 215.22 103.48 214.79 103.48H195.2V137.22ZM285.11 103.49H256.68V137.23H285.11V130.33H266.67V123.43H285.11V116.53H266.67L266.79 111.66L267.82 110.39H285.11V103.49Z"
    />
    <path
        d="M328.72 109.82C335.11 108.98 347.44 111.41 348.15 119.2C349.53 134.23 314.71 134.03 315.8 119.21C316.21 113.56 323.82 110.46 328.72 109.82Z"
    />
    <path d="M205.19 130.32V111.15C229.7 109.08 230.03 131.59 205.19 130.32Z" />
    <path
        d="M25.84 31.2991L21.74 20.9591H20.25L21 31.8591V66.1391H8.52002V1.11914H23.05L39.45 35.9591L43.55 46.2991H45.04L44.29 35.3991V1.11914H56.77V66.1391H42.24L25.84 31.2991Z"
    />
    <path
        d="M93.01 67.26C89.1 67.26 85.56 66.65 82.39 65.44C79.22 64.23 76.52 62.27 74.29 59.57C72.05 56.87 70.31 53.39 69.07 49.14C67.83 44.89 67.21 39.72 67.21 33.63C67.21 27.54 67.83 22.37 69.07 18.12C70.31 13.87 72.05 10.39 74.29 7.69C76.53 4.99 79.23 3.03 82.39 1.82C85.56 0.61 89.1 0 93.01 0C96.92 0 100.46 0.61 103.63 1.82C106.8 3.03 109.5 4.99 111.73 7.69C113.97 10.39 115.7 13.87 116.95 18.12C118.19 22.37 118.81 27.54 118.81 33.63C118.81 39.72 118.19 44.89 116.95 49.14C115.71 53.39 113.97 56.87 111.73 59.57C109.49 62.27 106.79 64.23 103.63 65.44C100.46 66.65 96.92 67.26 93.01 67.26ZM93.01 55.61C96.74 55.61 99.61 54.49 101.63 52.24C103.65 50 104.66 46.63 104.66 42.14V25.11C104.66 20.62 103.65 17.25 101.63 15.01C99.61 12.77 96.74 11.64 93.01 11.64C89.28 11.64 86.41 12.76 84.39 15.01C82.37 17.26 81.36 20.62 81.36 25.11V42.14C81.36 46.63 82.37 50 84.39 52.24C86.41 54.49 89.28 55.61 93.01 55.61Z"
    />
    <path d="M151.79 12.7591V66.1391H138.47V12.7591H122.91V1.11914H167.34V12.7591H151.78H151.79Z"
    />
    <path
        d="M231.99 66.1391L227.98 50.2091H208.04L204.03 66.1391H191.27L209.73 1.11914H226.68L245.12 66.1391H231.99ZM220.72 24.4991L218.67 13.2291H217.18L215.13 24.4991L211.31 39.4991H224.72L220.71 24.4991H220.72Z"
    />
    <path
        d="M270.65 31.2991L266.55 20.9591H265.06L265.81 31.8591V66.1391H253.33V1.11914H267.86L284.26 35.9591L288.36 46.2991H289.85L289.1 35.3991V1.11914H301.58V66.1391H287.05L270.65 31.2991Z"
    />
    <path
        d="M370.23 66.1391L366.22 50.2091H346.28L342.27 66.1391H329.51L347.96 1.11914H364.91L383.35 66.1391H370.22H370.23ZM358.96 24.4991L356.91 13.2291H355.42L353.37 24.4991L349.55 39.4991H362.96L358.95 24.4991H358.96Z"
    />
    <path
        d="M391.56 1.11914H414.38C418.35 1.11914 421.91 1.72914 425.05 2.93914C428.19 4.14914 430.84 6.05914 433.01 8.66914C435.18 11.2791 436.86 14.6291 438.04 18.7291C439.22 22.8291 439.81 27.7991 439.81 33.6291C439.81 39.4591 439.22 44.4391 438.04 48.5291C436.86 52.6291 435.18 55.9791 433.01 58.5891C430.84 61.1991 428.18 63.1091 425.05 64.3191C421.91 65.5291 418.36 66.1391 414.38 66.1391H391.56V1.11914ZM414.38 54.4891C421.89 54.4891 425.65 50.1391 425.65 41.4491V25.7991C425.65 17.1091 421.89 12.7591 414.38 12.7591H404.88V54.4891H414.38Z"
    />
</svg>