<svg width="440" height="151" viewBox="0 0 440 151" fill="none" xmlns="http://www.w3.org/2000/svg">
<g clip-path="url(#clip0_345_1365)">
<path d="M177.37 92.9801C237.55 91.5901 301.05 92.6401 360.7 99.7501C377.73 101.78 397.7 104.46 414.02 109.42C461.3 123.8 410.35 135.1 392.06 138.52C317.27 152.5 227.78 151.98 151.82 148.7C113.83 147.06 44.1801 145.17 10.2601 130.47C-19.9399 117.38 25.0501 107.64 36.1101 105.38C80.2801 96.3501 132.14 94.0301 177.37 92.9801ZM331.08 102.13C317.25 102.46 298.78 114.77 310.49 129.15C320.28 141.18 346.56 140.95 354.91 127.51C364.43 112.2 344.32 101.81 331.08 102.13ZM99.9201 103.49H88.3901L108.73 137.29L116.45 136.47L135.26 103.49L124.06 104.19L111.83 124.17L99.9201 103.48V103.49ZM166 103.49H156.78V137.23H166V103.49ZM195.2 137.22H214.79C215.78 137.22 220.53 135.58 221.84 135.05C238.96 128.13 236.98 111.6 220.55 105.4C219.61 105.05 215.22 103.48 214.79 103.48H195.2V137.22ZM285.11 103.49H256.68V137.23H285.11V130.33H266.67V123.43H285.11V116.53H266.67L266.79 111.66L267.82 110.39H285.11V103.49Z" fill="#F0F0E3"/>
<path d="M328.72 109.82C335.11 108.98 347.44 111.41 348.15 119.2C349.53 134.23 314.71 134.03 315.8 119.21C316.21 113.56 323.82 110.46 328.72 109.82Z" fill="#F0F0E3"/>
<path d="M205.19 130.32V111.15C229.7 109.08 230.03 131.59 205.19 130.32Z" fill="#F0F0E3"/>
<path d="M25.84 31.3001L21.74 20.9601H20.25L21 31.8601V66.1401H8.52002V1.12012H23.05L39.45 35.9601L43.55 46.3001H45.04L44.29 35.4001V1.12012H56.77V66.1401H42.24L25.84 31.3001Z" fill="#F0F0E3"/>
<path d="M93.01 67.26C89.1 67.26 85.56 66.65 82.39 65.44C79.22 64.23 76.52 62.27 74.29 59.57C72.05 56.87 70.31 53.39 69.07 49.14C67.83 44.89 67.21 39.72 67.21 33.63C67.21 27.54 67.83 22.37 69.07 18.12C70.31 13.87 72.05 10.39 74.29 7.69C76.53 4.99 79.23 3.03 82.39 1.82C85.56 0.61 89.1 0 93.01 0C96.92 0 100.46 0.61 103.63 1.82C106.8 3.03 109.5 4.99 111.73 7.69C113.97 10.39 115.7 13.87 116.95 18.12C118.19 22.37 118.81 27.54 118.81 33.63C118.81 39.72 118.19 44.89 116.95 49.14C115.71 53.39 113.97 56.87 111.73 59.57C109.49 62.27 106.79 64.23 103.63 65.44C100.46 66.65 96.92 67.26 93.01 67.26ZM93.01 55.61C96.74 55.61 99.61 54.49 101.63 52.24C103.65 50 104.66 46.63 104.66 42.14V25.11C104.66 20.62 103.65 17.25 101.63 15.01C99.61 12.77 96.74 11.64 93.01 11.64C89.28 11.64 86.41 12.76 84.39 15.01C82.37 17.26 81.36 20.62 81.36 25.11V42.14C81.36 46.63 82.37 50 84.39 52.24C86.41 54.49 89.28 55.61 93.01 55.61Z" fill="#F0F0E3"/>
<path d="M151.79 12.7601V66.1401H138.47V12.7601H122.91V1.12012H167.34V12.7601H151.78H151.79Z" fill="#F0F0E3"/>
<path d="M231.99 66.1401L227.98 50.2101H208.04L204.03 66.1401H191.27L209.73 1.12012H226.68L245.12 66.1401H231.99ZM220.72 24.5001L218.67 13.2301H217.18L215.13 24.5001L211.31 39.5001H224.72L220.71 24.5001H220.72Z" fill="#F0F0E3"/>
<path d="M270.65 31.3001L266.55 20.9601H265.06L265.81 31.8601V66.1401H253.33V1.12012H267.86L284.26 35.9601L288.36 46.3001H289.85L289.1 35.4001V1.12012H301.58V66.1401H287.05L270.65 31.3001Z" fill="#F0F0E3"/>
<path d="M370.23 66.1401L366.22 50.2101H346.28L342.27 66.1401H329.51L347.96 1.12012H364.91L383.35 66.1401H370.22H370.23ZM358.96 24.5001L356.91 13.2301H355.42L353.37 24.5001L349.55 39.5001H362.96L358.95 24.5001H358.96Z" fill="#F0F0E3"/>
<path d="M391.56 1.12012H414.38C418.35 1.12012 421.91 1.73012 425.05 2.94012C428.19 4.15012 430.84 6.06012 433.01 8.67012C435.18 11.2801 436.86 14.6301 438.04 18.7301C439.22 22.8301 439.81 27.8001 439.81 33.6301C439.81 39.4601 439.22 44.4401 438.04 48.5301C436.86 52.6301 435.18 55.9801 433.01 58.5901C430.84 61.2001 428.18 63.1101 425.05 64.3201C421.91 65.5301 418.36 66.1401 414.38 66.1401H391.56V1.12012ZM414.38 54.4901C421.89 54.4901 425.65 50.1401 425.65 41.4501V25.8001C425.65 17.1101 421.89 12.7601 414.38 12.7601H404.88V54.4901H414.38Z" fill="#F0F0E3"/>
</g>
<defs>
<clipPath id="clip0_345_1365">
<rect width="439.81" height="150.62" fill="white"/>
</clipPath>
</defs>
</svg>
