<svg width="24" height="14" viewBox="0 0 24 14" fill="none" xmlns="http://www.w3.org/2000/svg">
    <title>Videotape icon</title>
    <rect x="0.462581" y="0.462581" width="23.0748" height="13.0748" stroke="currentColor"
        stroke-width="0.925161" />
    <path fill-rule="evenodd" clip-rule="evenodd"
        d="M6.09336 3.5C4.31914 3.5 2.88086 4.93829 2.88086 6.7125C2.88086 8.48671 4.31914 9.925 6.09336 9.925C7.86757 9.925 9.30586 8.48671 9.30586 6.7125C9.30586 4.93829 7.86757 3.5 6.09336 3.5ZM8.81838 9.925C9.7284 9.15231 10.3059 7.99984 10.3059 6.7125C10.3059 4.386 8.41986 2.5 6.09336 2.5C3.76686 2.5 1.88086 4.386 1.88086 6.7125C1.88086 8.92539 3.58716 10.7398 5.75586 10.9117V10.925H18.2434V10.9117C20.4121 10.7398 22.1184 8.92539 22.1184 6.7125C22.1184 4.386 20.2324 2.5 17.9059 2.5C15.5794 2.5 13.6934 4.386 13.6934 6.7125C13.6934 7.99984 14.2708 9.15231 15.1808 9.925H8.81838ZM17.9059 9.925C19.6801 9.925 21.1184 8.48671 21.1184 6.7125C21.1184 4.93829 19.6801 3.5 17.9059 3.5C16.1316 3.5 14.6934 4.93829 14.6934 6.7125C14.6934 8.48671 16.1316 9.925 17.9059 9.925Z"
        fill="currentColor" />
</svg>