<svg width="29" height="29" viewBox="0 0 29 29" fill="none" xmlns="http://www.w3.org/2000/svg">
<path d="M19.7969 1.90039V4.70039C23.0969 6.60039 25.3969 10.3004 25.3969 14.4004C25.3969 18.5004 23.1969 22.2004 19.7969 24.1004V26.9004C24.6969 24.7004 28.0968 20.1004 28.0968 14.4004C28.0968 8.70039 24.6969 4.00039 19.7969 1.90039Z" fill="white"/>
<path d="M22.5968 14.5C22.5968 12 21.4969 9.1 19.7969 7.5V21.4C21.4969 19.9 22.5968 16.9 22.5968 14.4" fill="white"/>
<path d="M3.0968 7.50078C1.5968 7.50078 0.296875 8.70078 0.296875 10.3008V18.6008C0.296875 20.1008 1.4968 21.4008 3.0968 21.4008H6.89685L17.0968 28.2008V0.800781L6.89685 7.60078H3.0968V7.50078Z" fill="white"/>
</svg>
